<svg width="334" height="298" viewBox="0 0 334 298" fill="none" xmlns="http://www.w3.org/2000/svg">
<rect width="334" height="298" fill="white"/>
<g filter="url(#filter0_d_0_1)">
<path d="M230 144.5C230 184.541 197.093 217 156.5 217C115.907 217 83 184.541 83 144.5C83 104.459 115.907 72 156.5 72C197.093 72 230 104.459 230 144.5ZM94.6536 144.5C94.6536 178.192 122.343 205.505 156.5 205.505C190.657 205.505 218.346 178.192 218.346 144.5C218.346 110.808 190.657 83.495 156.5 83.495C122.343 83.495 94.6536 110.808 94.6536 144.5Z" fill="#DE0C0C"/>
</g>
<path d="M140 56C137.898 -18.2579 49.7909 6.32445 6 27.8978" stroke="#DE0C0C" stroke-width="11" stroke-linecap="round"/>
<path d="M67.5606 171C-30.9082 192.917 17.9171 260.606 54.6383 291.711" stroke="#DE0C0C" stroke-width="11" stroke-linecap="round"/>
<g filter="url(#filter1_d_0_1)">
<path d="M225 197.231C321.963 235.59 329.7 133.936 321.449 78.3135" stroke="#DE0C0C" stroke-width="11" stroke-linecap="round"/>
</g>
<defs>
<filter id="filter0_d_0_1" x="79" y="72" width="155" height="153" filterUnits="userSpaceOnUse" color-interpolation-filters="sRGB">
<feFlood flood-opacity="0" result="BackgroundImageFix"/>
<feColorMatrix in="SourceAlpha" type="matrix" values="0 0 0 0 0 0 0 0 0 0 0 0 0 0 0 0 0 0 127 0" result="hardAlpha"/>
<feOffset dy="4"/>
<feGaussianBlur stdDeviation="2"/>
<feComposite in2="hardAlpha" operator="out"/>
<feColorMatrix type="matrix" values="0 0 0 0 0 0 0 0 0 0 0 0 0 0 0 0 0 0 0.25 0"/>
<feBlend mode="normal" in2="BackgroundImageFix" result="effect1_dropShadow_0_1"/>
<feBlend mode="normal" in="SourceGraphic" in2="effect1_dropShadow_0_1" result="shape"/>
</filter>
<filter id="filter1_d_0_1" x="215.454" y="72.8575" width="118.014" height="146.27" filterUnits="userSpaceOnUse" color-interpolation-filters="sRGB">
<feFlood flood-opacity="0" result="BackgroundImageFix"/>
<feColorMatrix in="SourceAlpha" type="matrix" values="0 0 0 0 0 0 0 0 0 0 0 0 0 0 0 0 0 0 127 0" result="hardAlpha"/>
<feOffset dy="4"/>
<feGaussianBlur stdDeviation="2"/>
<feComposite in2="hardAlpha" operator="out"/>
<feColorMatrix type="matrix" values="0 0 0 0 0 0 0 0 0 0 0 0 0 0 0 0 0 0 0.25 0"/>
<feBlend mode="normal" in2="BackgroundImageFix" result="effect1_dropShadow_0_1"/>
<feBlend mode="normal" in="SourceGraphic" in2="effect1_dropShadow_0_1" result="shape"/>
</filter>
</defs>
</svg>
